P3
10 10
255
165 0 255 245 1 175 235 2 185 225 3 195 215 4 205 204 5 215 194 6 225 184 7 235 174 8 245 164 9 255
165 0 255 245 1 175 235 2 185 225 3 195 215 4 205 204 5 215 194 6 225 184 7 235 174 8 245 164 9 255
165 0 255 245 1 175 235 2 185 225 3 195 215 4 205 204 5 215 194 6 225 184 7 235 174 8 245 164 9 255
165 0 255 245 1 175 235 2 185 225 3 195 215 4 205 204 5 215 194 6 225 184 7 235 174 8 245 164 9 255
165 0 255 245 1 175 235 2 185 225 3 195 0 0 0 204 5 215 194 6 225 184 7 235 174 8 245 164 9 255
165 0 255 245 1 175 235 2 185 225 3 195 215 4 205 0 0 0 194 6 225 184 7 235 174 8 245 164 9 255
165 0 255 245 1 175 235 2 185 225 3 195 215 4 205 204 5 215 194 6 225 184 7 235 174 8 245 164 9 255
165 0 255 245 1 175 235 2 185 225 3 195 215 4 205 204 5 215 194 6 225 184 7 235 174 8 245 164 9 255
165 0 255 245 1 175 235 2 185 225 3 195 215 4 205 204 5 215 194 6 225 184 7 235 174 8 245 164 9 255
165 0 255 245 1 175 235 2 185 225 3 195 215 4 205 204 5 215 194 6 225 184 7 235 174 8 245 164 9 255